<?xml version="1.0" encoding="utf-8"?>
<!-- Generator: Adobe Illustrator 26.0.1, SVG Export Plug-In . SVG Version: 6.00 Build 0)  -->
<svg version="1.1" id="Layer_1" xmlns="http://www.w3.org/2000/svg" xmlns:xlink="http://www.w3.org/1999/xlink" x="0px" y="0px"
	 viewBox="0 0 500 500" style="enable-background:new 0 0 500 500;" xml:space="preserve">
<style type="text/css">
	.st0{fill:#00BFB2;}
	.st1{fill:#F8BD47;}
	.st2{fill:#FFFFFF;}
	.st3{fill:#7A5041;}
	.st4{font-family:'Fair-Prosper';}
	.st5{font-size:69.6121px;}
</style>
<g id="logo_burger">
	<g>
		<circle id="bg" class="st0" cx="252.3" cy="206.4" r="51.8"/>
		<g id="burger">
			<g id="top_bun">
				<path class="st1" d="M386.8,180.3H296l-1.5-2.2c-9.6-13.9-25.5-22.2-42.3-22.2c-16.9,0-32.7,8.3-42.3,22.2l-1.5,2.2h-90.6
					l-0.5-0.1c-10.1-1.9-13.3-11.5-13.6-16.3v-0.3c0-35.7,16.3-65.6,47.1-86.6c26.9-18.3,62.9-28.3,101.5-28.3S327,58.8,353.8,77
					c30.8,21,47.1,50.9,47.1,86.6v0.3c-0.3,4.8-3.5,14.4-13.6,16.3L386.8,180.3z"/>
			</g>
			<g id="camera_shine">
				<path class="st2" d="M233,206.4c-2.4,0-4.3-1.9-4.3-4.3c0-10.4,8.4-18.8,18.8-18.8c2.4,0,4.3,1.9,4.3,4.3s-1.9,4.3-4.3,4.3
					c-5.6,0-10.1,4.5-10.1,10.1C237.3,204.4,235.4,206.4,233,206.4z"/>
			</g>
			<g id="camera_lens">
				<path class="st2" d="M252.3,176.3c16.7,0,30.3,13.6,30.3,30.3s-13.6,30.3-30.3,30.3S222,223.3,222,206.6
					S235.6,176.3,252.3,176.3 M252.3,166.1c-22.4,0-40.5,18.1-40.5,40.5s18.1,40.5,40.5,40.5s40.5-18.1,40.5-40.5
					S274.7,166.1,252.3,166.1L252.3,166.1z"/>
			</g>
			<g id="camera_light">
				<circle class="st2" cx="328.1" cy="122.4" r="7.5"/>
			</g>
			<g id="bottom_bun">
				<path class="st1" d="M387,237.2c5.6,0,10.5,3.8,11.9,9.3c2.5,10,2.4,26.4-6.5,39.6c-7.2,10.8-18.6,17.5-33.9,19.7
					c-33.4,4.9-70.4,7.4-107.2,7.4c-36.7,0-73.2-2.5-105.3-7.4c-15.3-2.4-26.7-9.1-33.9-19.9c-8.7-13.2-8.9-29.5-6.4-39.4
					c1.4-5.5,6.3-9.3,11.9-9.3h93.1l1.5,1.9c9.8,12.1,24.4,19,39.9,19c15.7,0,30.9-7.1,40.6-19l1.5-1.9"/>
			</g>
			<g id="left_patty">
				<path class="st3" d="M202.3,206.6c0-3.7,0.4-7.4,1.3-11l0.9-4v-0.1h-68.6c-10.4,0-18.2,7.1-18.3,16.6
					c-0.1,9.3,7.9,16.9,17.2,16.9h70.9c0,0,0.1,0,0-0.1l-1.3-4.2C203,216.2,202.3,211.4,202.3,206.6z"/>
			</g>
			<g id="right_patty">
				<path class="st3" d="M371.6,191.5h-71.5l0.9,4c0.9,3.6,1.3,7.4,1.3,11c0,4.8-0.7,9.6-2.1,14.2l-1.3,4.2h72.7
					c9.2,0,16.8-7.5,16.8-16.8S380.8,191.5,371.6,191.5z"/>
			</g>
		</g>
	</g>
	<text transform="matrix(1 0 0 1 66.3745 408.0893)" class="st0 st4 st5">FoodieShare</text>
</g>
</svg>
